# Made in Blockbench 4.10.3
mtllib eucalyptus_torch_rotate.mtl

o cube
v 0.0625 0.6711841469490472 -0.6550318007794236
v 0.0625 0.6284316290333385 -0.7724933783776622
v 0.0625 0.08387625895785433 -0.4412692112008807
v 0.0625 0.04112374104214567 -0.5587307887991193
v -0.0625 0.6284316290333385 -0.7724933783776622
v -0.0625 0.6711841469490472 -0.6550318007794236
v -0.0625 0.04112374104214567 -0.5587307887991193
v -0.0625 0.08387625895785433 -0.4412692112008807
vt 0 1
vt 0.125 1
vt 0.125 0.375
vt 0 0.375
vt 0.125 1
vt 0.25 1
vt 0.25 0.375
vt 0.125 0.375
vt 0.25 1
vt 0.375 1
vt 0.375 0.375
vt 0.25 0.375
vt 0.375 1
vt 0.5 1
vt 0.5 0.375
vt 0.375 0.375
vt 0.625 0.875
vt 0.5 0.875
vt 0.5 1
vt 0.625 1
vt 0.625 0.875
vt 0.5 0.875
vt 0.5 0.75
vt 0.625 0.75
vn 0 -0.34202014332566866 -0.9396926207859084
vn 1 0 0
vn 0 0.34202014332566866 0.9396926207859084
vn -1 0 0
vn 0 0.9396926207859084 -0.34202014332566866
vn 0 -0.9396926207859084 0.34202014332566866
usemtl m_a28f3828-3cd7-a556-22e4-6f2ec9cfc4e7
f 7/3/1 5/2/1 2/1/1
f 4/4/1 7/3/1 2/1/1
f 4/7/2 2/6/2 1/5/2
f 3/8/2 4/7/2 1/5/2
f 3/11/3 1/10/3 6/9/3
f 8/12/3 3/11/3 6/9/3
f 8/15/4 6/14/4 5/13/4
f 7/16/4 8/15/4 5/13/4
f 1/19/5 2/18/5 5/17/5
f 6/20/5 1/19/5 5/17/5
f 4/23/6 3/22/6 8/21/6
f 7/24/6 4/23/6 8/21/6