# Made in Blockbench 4.9.4
mtllib mill_blades_item.mtl

o cube
v 0 0.08838834764831849 0.0625
v 0 0.08838834764831849 -0.0625
v 0.08838834764831849 0 0.0625
v 0.08838834764831849 0 -0.0625
v -0.08838834764831843 0 -0.0625
v -0.08838834764831843 0 0.0625
v 0 -0.08838834764831843 -0.0625
v 0 -0.08838834764831843 0.0625
vt 0.484375 0.890625
vt 0.515625 0.890625
vt 0.515625 0.859375
vt 0.484375 0.859375
vt 0.484375 0.859375
vt 0.515625 0.859375
vt 0.515625 0.828125
vt 0.484375 0.828125
vt 0.484375 0.828125
vt 0.515625 0.828125
vt 0.515625 0.796875
vt 0.484375 0.796875
vt 0.484375 0.796875
vt 0.515625 0.796875
vt 0.515625 0.765625
vt 0.484375 0.765625
vt 0.515625 0.734375
vt 0.484375 0.734375
vt 0.484375 0.765625
vt 0.515625 0.765625
vt 0.515625 0.734375
vt 0.484375 0.734375
vt 0.484375 0.703125
vt 0.515625 0.703125
vn 0 0 -1
vn 0.7071067811865475 0.7071067811865476 0
vn 0 0 1
vn -0.7071067811865475 -0.7071067811865476 0
vn -0.7071067811865476 0.7071067811865475 0
vn 0.7071067811865476 -0.7071067811865475 0
usemtl m_0cda17f2-568b-9e93-45dc-59e36742499b
f 7/3/1 5/2/1 2/1/1
f 4/4/1 7/3/1 2/1/1
f 4/7/2 2/6/2 1/5/2
f 3/8/2 4/7/2 1/5/2
f 3/11/3 1/10/3 6/9/3
f 8/12/3 3/11/3 6/9/3
f 8/15/4 6/14/4 5/13/4
f 7/16/4 8/15/4 5/13/4
f 1/19/5 2/18/5 5/17/5
f 6/20/5 1/19/5 5/17/5
f 4/23/6 3/22/6 8/21/6
f 7/24/6 4/23/6 8/21/6
o cube
v -0.0066291260736239255 -0.06408155204503091 0.03749999999999998
v -0.0066291260736239255 -0.06408155204503091 -0.03749999999999998
v -0.22759999519442004 -0.28505242116582696 0.03749999999999998
v -0.22759999519442004 -0.28505242116582696 -0.03749999999999998
v -0.059662134662614996 -0.011048543456039839 -0.03749999999999998
v -0.059662134662614996 -0.011048543456039839 0.03749999999999998
v -0.2806330037834111 -0.2320194125768359 -0.03749999999999998
v -0.2806330037834111 -0.2320194125768359 0.03749999999999998
vt 0.46875 0.734375
vt 0.484375 0.734375
vt 0.484375 0.65625
vt 0.46875 0.65625
vt 0.46875 0.65625
vt 0.484375 0.65625
vt 0.484375 0.578125
vt 0.46875 0.578125
vt 0.46875 0.578125
vt 0.484375 0.578125
vt 0.484375 0.5
vt 0.46875 0.5
vt 0.484375 0.96875
vt 0.5 0.96875
vt 0.5 0.890625
vt 0.484375 0.890625
vt 0.65625 0.546875
vt 0.640625 0.546875
vt 0.640625 0.5625
vt 0.65625 0.5625
vt 0.46875 0.359375
vt 0.453125 0.359375
vt 0.453125 0.34375
vt 0.46875 0.34375
vn 0 0 -1
vn 0.7071067811865475 -0.7071067811865476 0
vn 0 0 1
vn -0.7071067811865475 0.7071067811865476 0
vn 0.7071067811865476 0.7071067811865475 0
vn -0.7071067811865476 -0.7071067811865475 0
usemtl m_0cda17f2-568b-9e93-45dc-59e36742499b
f 15/27/7 13/26/7 10/25/7
f 12/28/7 15/27/7 10/25/7
f 12/31/8 10/30/8 9/29/8
f 11/32/8 12/31/8 9/29/8
f 11/35/9 9/34/9 14/33/9
f 16/36/9 11/35/9 14/33/9
f 16/39/10 14/38/10 13/37/10
f 15/40/10 16/39/10 13/37/10
f 9/43/11 10/42/11 13/41/11
f 14/44/11 9/43/11 13/41/11
f 12/47/12 11/46/12 16/45/12
f 15/48/12 12/47/12 16/45/12
o cube
v 0.2938912559306588 0.2364388299592518 0.03749999999999998
v 0.2938912559306588 0.2364388299592518 -0.03749999999999998
v 0.07292038680986268 0.015467960838455697 0.03749999999999998
v 0.07292038680986268 0.015467960838455697 -0.03749999999999998
v 0.24085824734166783 0.2894718385482429 -0.03749999999999998
v 0.24085824734166783 0.2894718385482429 0.03749999999999998
v 0.01988737822087161 0.06850096942744677 -0.03749999999999998
v 0.01988737822087161 0.06850096942744677 0.03749999999999998
vt 0.4375 0.75
vt 0.453125 0.75
vt 0.453125 0.671875
vt 0.4375 0.671875
vt 0.4375 0.671875
vt 0.453125 0.671875
vt 0.453125 0.59375
vt 0.4375 0.59375
vt 0.4375 0.59375
vt 0.453125 0.59375
vt 0.453125 0.515625
vt 0.4375 0.515625
vt 0.453125 0.96875
vt 0.46875 0.96875
vt 0.46875 0.890625
vt 0.453125 0.890625
vt 0.0625 0.359375
vt 0.046875 0.359375
vt 0.046875 0.375
vt 0.0625 0.375
vt 0.078125 0.375
vt 0.0625 0.375
vt 0.0625 0.359375
vt 0.078125 0.359375
vn 0 0 -1
vn 0.7071067811865475 -0.7071067811865476 0
vn 0 0 1
vn -0.7071067811865475 0.7071067811865476 0
vn 0.7071067811865476 0.7071067811865475 0
vn -0.7071067811865476 -0.7071067811865475 0
usemtl m_0cda17f2-568b-9e93-45dc-59e36742499b
f 23/51/13 21/50/13 18/49/13
f 20/52/13 23/51/13 18/49/13
f 20/55/14 18/54/14 17/53/14
f 19/56/14 20/55/14 17/53/14
f 19/59/15 17/58/15 22/57/15
f 24/60/15 19/59/15 22/57/15
f 24/63/16 22/62/16 21/61/16
f 23/64/16 24/63/16 21/61/16
f 17/67/17 18/66/17 21/65/17
f 22/68/17 17/67/17 21/65/17
f 20/71/18 19/70/18 24/69/18
f 23/72/18 20/71/18 24/69/18
o cube
v -0.23643882995925192 0.2938912559306588 0.03749999999999998
v -0.23643882995925192 0.2938912559306588 -0.03749999999999998
v -0.015467960838455752 0.07292038680986268 0.03749999999999998
v -0.015467960838455752 0.07292038680986268 -0.03749999999999998
v -0.28947183854824293 0.24085824734166772 -0.03749999999999998
v -0.28947183854824293 0.24085824734166772 0.03749999999999998
v -0.06850096942744677 0.01988737822087161 -0.03749999999999998
v -0.06850096942744677 0.01988737822087161 0.03749999999999998
vt 0.453125 0.890625
vt 0.46875 0.890625
vt 0.46875 0.8125
vt 0.453125 0.8125
vt 0.453125 0.8125
vt 0.46875 0.8125
vt 0.46875 0.734375
vt 0.453125 0.734375
vt 0.453125 0.734375
vt 0.46875 0.734375
vt 0.46875 0.65625
vt 0.453125 0.65625
vt 0.453125 0.65625
vt 0.46875 0.65625
vt 0.46875 0.578125
vt 0.453125 0.578125
vt 0.09375 0.359375
vt 0.078125 0.359375
vt 0.078125 0.375
vt 0.09375 0.375
vt 0.109375 0.375
vt 0.09375 0.375
vt 0.09375 0.359375
vt 0.109375 0.359375
vn 0 0 -1
vn 0.7071067811865475 0.7071067811865476 0
vn 0 0 1
vn -0.7071067811865475 -0.7071067811865476 0
vn -0.7071067811865476 0.7071067811865475 0
vn 0.7071067811865476 -0.7071067811865475 0
usemtl m_0cda17f2-568b-9e93-45dc-59e36742499b
f 31/75/19 29/74/19 26/73/19
f 28/76/19 31/75/19 26/73/19
f 28/79/20 26/78/20 25/77/20
f 27/80/20 28/79/20 25/77/20
f 27/83/21 25/82/21 30/81/21
f 32/84/21 27/83/21 30/81/21
f 32/87/22 30/86/22 29/85/22
f 31/88/22 32/87/22 29/85/22
f 25/91/23 26/90/23 29/89/23
f 30/92/23 25/91/23 29/89/23
f 28/95/24 27/94/24 32/93/24
f 31/96/24 28/95/24 32/93/24
o cube
v 0.06629126073623881 -0.022097086912079622 0.03749999999999998
v 0.06629126073623881 -0.022097086912079622 -0.03749999999999998
v 0.28726212985703503 -0.24306795603287568 0.03749999999999998
v 0.28726212985703503 -0.24306795603287568 -0.03749999999999998
v 0.013258252147247851 -0.07513009550107064 -0.03749999999999998
v 0.013258252147247851 -0.07513009550107064 0.03749999999999998
v 0.23422912126804396 -0.29610096462186675 -0.03749999999999998
v 0.23422912126804396 -0.29610096462186675 0.03749999999999998
vt 0.453125 0.578125
vt 0.46875 0.578125
vt 0.46875 0.5
vt 0.453125 0.5
vt 0.46875 0.96875
vt 0.484375 0.96875
vt 0.484375 0.890625
vt 0.46875 0.890625
vt 0.46875 0.890625
vt 0.484375 0.890625
vt 0.484375 0.8125
vt 0.46875 0.8125
vt 0.46875 0.8125
vt 0.484375 0.8125
vt 0.484375 0.734375
vt 0.46875 0.734375
vt 0.65625 0.5625
vt 0.640625 0.5625
vt 0.640625 0.578125
vt 0.65625 0.578125
vt 0.453125 0.359375
vt 0.4375 0.359375
vt 0.4375 0.34375
vt 0.453125 0.34375
vn 0 0 -1
vn 0.7071067811865475 0.7071067811865476 0
vn 0 0 1
vn -0.7071067811865475 -0.7071067811865476 0
vn -0.7071067811865476 0.7071067811865475 0
vn 0.7071067811865476 -0.7071067811865475 0
usemtl m_0cda17f2-568b-9e93-45dc-59e36742499b
f 39/99/25 37/98/25 34/97/25
f 36/100/25 39/99/25 34/97/25
f 36/103/26 34/102/26 33/101/26
f 35/104/26 36/103/26 33/101/26
f 35/107/27 33/106/27 38/105/27
f 40/108/27 35/107/27 38/105/27
f 40/111/28 38/110/28 37/109/28
f 39/112/28 40/111/28 37/109/28
f 33/115/29 34/114/29 37/113/29
f 38/116/29 33/115/29 37/113/29
f 36/119/30 35/118/30 40/117/30
f 39/120/30 36/119/30 40/117/30
o cube
v 1.133580558589684 0.9877397849699585 0.021874999999999978
v 1.133580558589684 0.9877397849699585 -0.021874999999999978
v 0.33808542975481803 0.19224465613509256 0.021874999999999978
v 0.33808542975481803 0.19224465613509256 -0.021874999999999978
v 0.9921592023523746 1.129161141207268 -0.021874999999999978
v 0.9921592023523746 1.129161141207268 0.021874999999999978
v 0.1966640735175086 0.3336660123724021 -0.021874999999999978
v 0.1966640735175086 0.3336660123724021 0.021874999999999978
vt 0.0625 1
vt 0.09375 1
vt 0.09375 0.71875
vt 0.0625 0.71875
vt 0.359375 1
vt 0.375 1
vt 0.375 0.71875
vt 0.359375 0.71875
vt 0.09375 1
vt 0.125 1
vt 0.125 0.71875
vt 0.09375 0.71875
vt 0.359375 0.71875
vt 0.375 0.71875
vt 0.375 0.4375
vt 0.359375 0.4375
vt 0.640625 0.421875
vt 0.609375 0.421875
vt 0.609375 0.4375
vt 0.640625 0.4375
vt 0.609375 0.390625
vt 0.578125 0.390625
vt 0.578125 0.375
vt 0.609375 0.375
vn 0 0 -1
vn 0.7071067811865475 -0.7071067811865476 0
vn 0 0 1
vn -0.7071067811865475 0.7071067811865476 0
vn 0.7071067811865476 0.7071067811865475 0
vn -0.7071067811865476 -0.7071067811865475 0
usemtl m_0cda17f2-568b-9e93-45dc-59e36742499b
f 47/123/31 45/122/31 42/121/31
f 44/124/31 47/123/31 42/121/31
f 44/127/32 42/126/32 41/125/32
f 43/128/32 44/127/32 41/125/32
f 43/131/33 41/130/33 46/129/33
f 48/132/33 43/131/33 46/129/33
f 48/135/34 46/134/34 45/133/34
f 47/136/34 48/135/34 45/133/34
f 41/139/35 42/138/35 45/137/35
f 46/140/35 41/139/35 45/137/35
f 44/143/36 43/142/36 48/141/36
f 47/144/36 44/143/36 48/141/36
o cube
v -0.18340582137026085 -0.32924659498998615 0.018750000000000044
v -0.18340582137026085 -0.32924659498998615 -0.025000000000000022
v -0.9789009502051269 -1.124741723824852 0.018750000000000044
v -0.9789009502051269 -1.124741723824852 -0.025000000000000022
v -0.3248271776075703 -0.18782523875267665 -0.025000000000000022
v -0.3248271776075703 -0.18782523875267665 0.018750000000000044
v -1.1203223064424364 -0.9833203675875426 -0.025000000000000022
v -1.1203223064424364 -0.9833203675875426 0.018750000000000044
vt 0.125 1
vt 0.15625 1
vt 0.15625 0.71875
vt 0.125 0.71875
vt 0.375 1
vt 0.390625 1
vt 0.390625 0.71875
vt 0.375 0.71875
vt 0.15625 1
vt 0.1875 1
vt 0.1875 0.71875
vt 0.15625 0.71875
vt 0.375 0.71875
vt 0.390625 0.71875
vt 0.390625 0.4375
vt 0.375 0.4375
vt 0.640625 0.40625
vt 0.609375 0.40625
vt 0.609375 0.421875
vt 0.640625 0.421875
vt 0.640625 0.40625
vt 0.609375 0.40625
vt 0.609375 0.390625
vt 0.640625 0.390625
vn 0 0 -1
vn 0.7071067811865475 -0.7071067811865476 0
vn 0 0 1
vn -0.7071067811865475 0.7071067811865476 0
vn 0.7071067811865476 0.7071067811865475 0
vn -0.7071067811865476 -0.7071067811865475 0
usemtl m_0cda17f2-568b-9e93-45dc-59e36742499b
f 55/147/37 53/146/37 50/145/37
f 52/148/37 55/147/37 50/145/37
f 52/151/38 50/150/38 49/149/38
f 51/152/38 52/151/38 49/149/38
f 51/155/39 49/154/39 54/153/39
f 56/156/39 51/155/39 54/153/39
f 56/159/40 54/158/40 53/157/40
f 55/160/40 56/159/40 53/157/40
f 49/163/41 50/162/41 53/161/41
f 54/164/41 49/163/41 53/161/41
f 52/167/42 51/166/42 56/165/42
f 55/168/42 52/167/42 56/165/42
o cube
v 0.33145630368119416 -0.19887378220871643 0.018750000000000044
v 0.33145630368119416 -0.19887378220871643 -0.025000000000000022
v 1.1269514325160603 -0.9943689110435824 0.018750000000000044
v 1.1269514325160603 -0.9943689110435824 -0.025000000000000022
v 0.19003494744388472 -0.34029513844602594 -0.025000000000000022
v 0.19003494744388472 -0.34029513844602594 0.018750000000000044
v 0.9855300762787507 -1.135790267280892 -0.025000000000000022
v 0.9855300762787507 -1.135790267280892 0.018750000000000044
vt 0 1
vt 0.03125 1
vt 0.03125 0.71875
vt 0 0.71875
vt 0.34375 1
vt 0.359375 1
vt 0.359375 0.71875
vt 0.34375 0.71875
vt 0.03125 1
vt 0.0625 1
vt 0.0625 0.71875
vt 0.03125 0.71875
vt 0.34375 0.71875
vt 0.359375 0.71875
vt 0.359375 0.4375
vt 0.34375 0.4375
vt 0.546875 0.375
vt 0.515625 0.375
vt 0.515625 0.390625
vt 0.546875 0.390625
vt 0.578125 0.390625
vt 0.546875 0.390625
vt 0.546875 0.375
vt 0.578125 0.375
vn 0 0 -1
vn 0.7071067811865475 0.7071067811865476 0
vn 0 0 1
vn -0.7071067811865475 -0.7071067811865476 0
vn -0.7071067811865476 0.7071067811865475 0
vn 0.7071067811865476 -0.7071067811865475 0
usemtl m_0cda17f2-568b-9e93-45dc-59e36742499b
f 63/171/43 61/170/43 58/169/43
f 60/172/43 63/171/43 58/169/43
f 60/175/44 58/174/44 57/173/44
f 59/176/44 60/175/44 57/173/44
f 59/179/45 57/178/45 62/177/45
f 64/180/45 59/179/45 62/177/45
f 64/183/46 62/182/46 61/181/46
f 63/184/46 64/183/46 61/181/46
f 57/187/47 58/186/47 61/185/47
f 62/188/47 57/187/47 61/185/47
f 60/191/48 59/190/48 64/189/48
f 63/192/48 60/191/48 64/189/48
o cube
v -0.9855300762787508 1.135790267280892 0.034375000000000044
v -0.9855300762787508 1.135790267280892 -0.009375000000000022
v -0.19003494744388466 0.340295138446026 0.034375000000000044
v -0.19003494744388466 0.340295138446026 -0.009375000000000022
v -1.1269514325160603 0.9943689110435825 -0.009375000000000022
v -1.1269514325160603 0.9943689110435825 0.034375000000000044
v -0.33145630368119416 0.19887378220871643 -0.009375000000000022
v -0.33145630368119416 0.19887378220871643 0.034375000000000044
vt 0.1875 1
vt 0.21875 1
vt 0.21875 0.71875
vt 0.1875 0.71875
vt 0.390625 1
vt 0.40625 1
vt 0.40625 0.71875
vt 0.390625 0.71875
vt 0.21875 1
vt 0.25 1
vt 0.25 0.71875
vt 0.21875 0.71875
vt 0.390625 0.71875
vt 0.40625 0.71875
vt 0.40625 0.4375
vt 0.390625 0.4375
vt 0.640625 0.375
vt 0.609375 0.375
vt 0.609375 0.390625
vt 0.640625 0.390625
vt 0.03125 0.375
vt 0 0.375
vt 0 0.359375
vt 0.03125 0.359375
vn 0 0 -1
vn 0.7071067811865475 0.7071067811865476 0
vn 0 0 1
vn -0.7071067811865475 -0.7071067811865476 0
vn -0.7071067811865476 0.7071067811865475 0
vn 0.7071067811865476 -0.7071067811865475 0
usemtl m_0cda17f2-568b-9e93-45dc-59e36742499b
f 71/195/49 69/194/49 66/193/49
f 68/196/49 71/195/49 66/193/49
f 68/199/50 66/198/50 65/197/50
f 67/200/50 68/199/50 65/197/50
f 67/203/51 65/202/51 70/201/51
f 72/204/51 67/203/51 70/201/51
f 72/207/52 70/206/52 69/205/52
f 71/208/52 72/207/52 69/205/52
f 65/211/53 66/210/53 69/209/53
f 70/212/53 65/211/53 69/209/53
f 68/215/54 67/214/54 72/213/54
f 71/216/54 68/215/54 72/213/54
o cube
v 0 0.057452425971406984 0.5
v 0 0.057452425971406984 0.0625
v 0.057452425971406984 0 0.5
v 0.057452425971406984 0 0.0625
v -0.057452425971406984 0 0.0625
v -0.057452425971406984 0 0.5
v 0 -0.057452425971406984 0.0625
v 0 -0.057452425971406984 0.5
vt 0.4375 0.515625
vt 0.453125 0.515625
vt 0.453125 0.5
vt 0.4375 0.5
vt 0.4375 1
vt 0.546875 1
vt 0.546875 0.984375
vt 0.4375 0.984375
vt 0.03125 0.375
vt 0.046875 0.375
vt 0.046875 0.359375
vt 0.03125 0.359375
vt 0.4375 0.984375
vt 0.546875 0.984375
vt 0.546875 0.96875
vt 0.4375 0.96875
vt 0.453125 0.859375
vt 0.4375 0.859375
vt 0.4375 0.96875
vt 0.453125 0.96875
vt 0.453125 0.859375
vt 0.4375 0.859375
vt 0.4375 0.75
vt 0.453125 0.75
vn 0 0 -1
vn 0.7071067811865475 0.7071067811865476 0
vn 0 0 1
vn -0.7071067811865475 -0.7071067811865476 0
vn -0.7071067811865476 0.7071067811865475 0
vn 0.7071067811865476 -0.7071067811865475 0
usemtl m_0cda17f2-568b-9e93-45dc-59e36742499b
f 79/219/55 77/218/55 74/217/55
f 76/220/55 79/219/55 74/217/55
f 76/223/56 74/222/56 73/221/56
f 75/224/56 76/223/56 73/221/56
f 75/227/57 73/226/57 78/225/57
f 80/228/57 75/227/57 78/225/57
f 80/231/58 78/230/58 77/229/58
f 79/232/58 80/231/58 77/229/58
f 73/235/59 74/234/59 77/233/59
f 78/236/59 73/235/59 77/233/59
f 76/239/60 75/238/60 80/237/60
f 79/240/60 76/239/60 80/237/60